<mxfile host="app.diagrams.net" modified="2022-07-27T06:19:27.911Z" agent="5.0 (Macintosh; Intel Mac OS X 10_15_7) AppleWebKit/605.1.15 (KHTML, like Gecko) Version/15.5 Safari/605.1.15" etag="sUOJTnKwpBcYggu9_bpZ" version="20.1.3" type="github">
  <diagram id="2xVXoOkcb4J48V6miXRt" name="第 1 页">
    <mxGraphModel dx="1426" dy="825" grid="1" gridSize="10" guides="1" tooltips="1" connect="1" arrows="1" fold="1" page="1" pageScale="1" pageWidth="827" pageHeight="1169" math="0" shadow="0">
      <root>
        <mxCell id="0" />
        <mxCell id="1" parent="0" />
        <mxCell id="-wA5kaDvdZIAYcf233Ci-1" value="" style="shape=ext;double=1;rounded=0;whiteSpace=wrap;html=1;labelBackgroundColor=#FFFFFF;fontFamily=Helvetica;fontSize=18;fontColor=#333333;fillColor=#f5f5f5;strokeColor=#666666;" vertex="1" parent="1">
          <mxGeometry x="10" y="50" width="590" height="660" as="geometry" />
        </mxCell>
        <mxCell id="-wA5kaDvdZIAYcf233Ci-2" value="RPC" style="text;strokeColor=none;fillColor=none;html=1;fontSize=24;fontStyle=1;verticalAlign=middle;align=center;labelBackgroundColor=#FFFFFF;fontFamily=Helvetica;fontColor=#000000;" vertex="1" parent="1">
          <mxGeometry x="10" y="50" width="100" height="40" as="geometry" />
        </mxCell>
        <mxCell id="-wA5kaDvdZIAYcf233Ci-10" style="edgeStyle=orthogonalEdgeStyle;rounded=0;orthogonalLoop=1;jettySize=auto;html=1;exitX=1;exitY=1;exitDx=0;exitDy=0;entryX=0.5;entryY=0;entryDx=0;entryDy=0;fontFamily=Helvetica;fontSize=18;fontColor=#000000;" edge="1" parent="1" source="-wA5kaDvdZIAYcf233Ci-3" target="-wA5kaDvdZIAYcf233Ci-9">
          <mxGeometry relative="1" as="geometry" />
        </mxCell>
        <mxCell id="-wA5kaDvdZIAYcf233Ci-12" style="edgeStyle=orthogonalEdgeStyle;rounded=0;orthogonalLoop=1;jettySize=auto;html=1;exitX=0.25;exitY=1;exitDx=0;exitDy=0;fontFamily=Helvetica;fontSize=18;fontColor=#000000;" edge="1" parent="1" source="-wA5kaDvdZIAYcf233Ci-3" target="-wA5kaDvdZIAYcf233Ci-8">
          <mxGeometry relative="1" as="geometry" />
        </mxCell>
        <mxCell id="-wA5kaDvdZIAYcf233Ci-3" value="&lt;pre style=&quot;text-align: start;&quot;&gt;&lt;font style=&quot;font-size: 18px; background-color: rgb(255, 255, 255);&quot; face=&quot;Helvetica&quot;&gt;RegisterPeerTask&lt;/font&gt;&lt;/pre&gt;" style="shape=ext;double=1;rounded=1;whiteSpace=wrap;html=1;labelBackgroundColor=#FFFFFF;fontFamily=Helvetica;fontSize=18;fontColor=#000000;" vertex="1" parent="1">
          <mxGeometry x="214" y="100" width="200" height="80" as="geometry" />
        </mxCell>
        <mxCell id="-wA5kaDvdZIAYcf233Ci-4" value="Tiny" style="shape=ext;double=1;rounded=1;whiteSpace=wrap;html=1;labelBackgroundColor=#FFFFFF;fontFamily=Helvetica;fontSize=18;fontColor=#000000;" vertex="1" parent="1">
          <mxGeometry x="30" y="340" width="120" height="80" as="geometry" />
        </mxCell>
        <mxCell id="-wA5kaDvdZIAYcf233Ci-24" style="edgeStyle=orthogonalEdgeStyle;rounded=0;orthogonalLoop=1;jettySize=auto;html=1;exitX=0.5;exitY=1;exitDx=0;exitDy=0;entryX=0.5;entryY=0;entryDx=0;entryDy=0;fontFamily=Helvetica;fontSize=18;fontColor=#000000;" edge="1" parent="1" source="-wA5kaDvdZIAYcf233Ci-5" target="-wA5kaDvdZIAYcf233Ci-21">
          <mxGeometry relative="1" as="geometry" />
        </mxCell>
        <mxCell id="-wA5kaDvdZIAYcf233Ci-5" value="small" style="shape=ext;double=1;rounded=1;whiteSpace=wrap;html=1;labelBackgroundColor=#FFFFFF;fontFamily=Helvetica;fontSize=18;fontColor=#000000;" vertex="1" parent="1">
          <mxGeometry x="220" y="330" width="120" height="80" as="geometry" />
        </mxCell>
        <mxCell id="-wA5kaDvdZIAYcf233Ci-28" style="edgeStyle=orthogonalEdgeStyle;rounded=0;orthogonalLoop=1;jettySize=auto;html=1;exitX=0.5;exitY=1;exitDx=0;exitDy=0;fontFamily=Helvetica;fontSize=18;fontColor=#000000;" edge="1" parent="1" source="-wA5kaDvdZIAYcf233Ci-6" target="-wA5kaDvdZIAYcf233Ci-26">
          <mxGeometry relative="1" as="geometry" />
        </mxCell>
        <mxCell id="-wA5kaDvdZIAYcf233Ci-6" value="normal" style="shape=ext;double=1;rounded=1;whiteSpace=wrap;html=1;labelBackgroundColor=#FFFFFF;fontFamily=Helvetica;fontSize=18;fontColor=#000000;" vertex="1" parent="1">
          <mxGeometry x="410" y="330" width="120" height="80" as="geometry" />
        </mxCell>
        <mxCell id="-wA5kaDvdZIAYcf233Ci-13" style="edgeStyle=orthogonalEdgeStyle;rounded=0;orthogonalLoop=1;jettySize=auto;html=1;exitX=0.25;exitY=1;exitDx=0;exitDy=0;fontFamily=Helvetica;fontSize=18;fontColor=#000000;" edge="1" parent="1" source="-wA5kaDvdZIAYcf233Ci-8" target="-wA5kaDvdZIAYcf233Ci-4">
          <mxGeometry relative="1" as="geometry" />
        </mxCell>
        <mxCell id="-wA5kaDvdZIAYcf233Ci-14" style="edgeStyle=orthogonalEdgeStyle;rounded=0;orthogonalLoop=1;jettySize=auto;html=1;exitX=0.5;exitY=1;exitDx=0;exitDy=0;fontFamily=Helvetica;fontSize=18;fontColor=#000000;" edge="1" parent="1" source="-wA5kaDvdZIAYcf233Ci-8" target="-wA5kaDvdZIAYcf233Ci-5">
          <mxGeometry relative="1" as="geometry" />
        </mxCell>
        <mxCell id="-wA5kaDvdZIAYcf233Ci-16" style="edgeStyle=orthogonalEdgeStyle;rounded=0;orthogonalLoop=1;jettySize=auto;html=1;exitX=1;exitY=0.5;exitDx=0;exitDy=0;entryX=0;entryY=0.25;entryDx=0;entryDy=0;fontFamily=Helvetica;fontSize=18;fontColor=#000000;" edge="1" parent="1" source="-wA5kaDvdZIAYcf233Ci-8" target="-wA5kaDvdZIAYcf233Ci-6">
          <mxGeometry relative="1" as="geometry" />
        </mxCell>
        <mxCell id="-wA5kaDvdZIAYcf233Ci-8" value="reuse task" style="shape=ext;double=1;rounded=1;whiteSpace=wrap;html=1;labelBackgroundColor=#FFFFFF;fontFamily=Helvetica;fontSize=18;fontColor=#000000;" vertex="1" parent="1">
          <mxGeometry x="160" y="220" width="120" height="80" as="geometry" />
        </mxCell>
        <mxCell id="-wA5kaDvdZIAYcf233Ci-11" style="edgeStyle=orthogonalEdgeStyle;rounded=0;orthogonalLoop=1;jettySize=auto;html=1;exitX=0.5;exitY=1;exitDx=0;exitDy=0;entryX=0.5;entryY=0;entryDx=0;entryDy=0;fontFamily=Helvetica;fontSize=18;fontColor=#000000;" edge="1" parent="1" source="-wA5kaDvdZIAYcf233Ci-9" target="-wA5kaDvdZIAYcf233Ci-6">
          <mxGeometry relative="1" as="geometry" />
        </mxCell>
        <mxCell id="-wA5kaDvdZIAYcf233Ci-9" value="trigger obtain seed" style="shape=ext;double=1;rounded=1;whiteSpace=wrap;html=1;labelBackgroundColor=#FFFFFF;fontFamily=Helvetica;fontSize=18;fontColor=#000000;" vertex="1" parent="1">
          <mxGeometry x="385" y="220" width="170" height="80" as="geometry" />
        </mxCell>
        <mxCell id="-wA5kaDvdZIAYcf233Ci-17" value="直接返回分片内容" style="shape=ext;double=1;rounded=1;whiteSpace=wrap;html=1;labelBackgroundColor=#FFFFFF;fontFamily=Helvetica;fontSize=18;fontColor=#000000;" vertex="1" parent="1">
          <mxGeometry x="30" y="480" width="120" height="80" as="geometry" />
        </mxCell>
        <mxCell id="-wA5kaDvdZIAYcf233Ci-18" value="" style="endArrow=classic;html=1;rounded=0;fontFamily=Helvetica;fontSize=18;fontColor=#000000;exitX=0.5;exitY=1;exitDx=0;exitDy=0;entryX=0.5;entryY=0;entryDx=0;entryDy=0;" edge="1" parent="1" source="-wA5kaDvdZIAYcf233Ci-4" target="-wA5kaDvdZIAYcf233Ci-17">
          <mxGeometry width="50" height="50" relative="1" as="geometry">
            <mxPoint x="390" y="450" as="sourcePoint" />
            <mxPoint x="440" y="400" as="targetPoint" />
          </mxGeometry>
        </mxCell>
        <mxCell id="-wA5kaDvdZIAYcf233Ci-19" value="返回single分片信息" style="shape=ext;double=1;rounded=1;whiteSpace=wrap;html=1;labelBackgroundColor=#FFFFFF;fontFamily=Helvetica;fontSize=18;fontColor=#000000;" vertex="1" parent="1">
          <mxGeometry x="220" y="570" width="120" height="80" as="geometry" />
        </mxCell>
        <mxCell id="-wA5kaDvdZIAYcf233Ci-25" style="edgeStyle=orthogonalEdgeStyle;rounded=0;orthogonalLoop=1;jettySize=auto;html=1;exitX=0.5;exitY=1;exitDx=0;exitDy=0;entryX=0.5;entryY=0;entryDx=0;entryDy=0;fontFamily=Helvetica;fontSize=18;fontColor=#000000;" edge="1" parent="1" source="-wA5kaDvdZIAYcf233Ci-21" target="-wA5kaDvdZIAYcf233Ci-19">
          <mxGeometry relative="1" as="geometry" />
        </mxCell>
        <mxCell id="-wA5kaDvdZIAYcf233Ci-21" value="find parent" style="shape=ext;double=1;rounded=1;whiteSpace=wrap;html=1;labelBackgroundColor=#FFFFFF;fontFamily=Helvetica;fontSize=18;fontColor=#000000;" vertex="1" parent="1">
          <mxGeometry x="220" y="450" width="120" height="80" as="geometry" />
        </mxCell>
        <mxCell id="-wA5kaDvdZIAYcf233Ci-26" value="等待report piece分配parent" style="shape=ext;double=1;rounded=1;whiteSpace=wrap;html=1;labelBackgroundColor=#FFFFFF;fontFamily=Helvetica;fontSize=18;fontColor=#000000;" vertex="1" parent="1">
          <mxGeometry x="390" y="490" width="160" height="80" as="geometry" />
        </mxCell>
      </root>
    </mxGraphModel>
  </diagram>
</mxfile>
